<?xml version="1.0" encoding="UTF-8" standalone="no" ?>
<!DOCTYPE svg PUBLIC "-//W3C//DTD SVG 1.1//EN" "http://www.w3.org/Graphics/SVG/1.1/DTD/svg11.dtd">
<svg xmlns="http://www.w3.org/2000/svg" xmlns:xlink="http://www.w3.org/1999/xlink" version="1.1" width="1080" height="1080" viewBox="0 0 1080 1080" xml:space="preserve">
<desc>Created with Fabric.js 5.2.4</desc>
<defs>
</defs>
<rect x="0" y="0" width="100%" height="100%" fill="transparent"></rect>
<g transform="matrix(1 0 0 1 540 540)" id="43bb08c6-3718-4e23-af59-8244e934346d"  >
<rect style="stroke: none; stroke-width: 1; stroke-dasharray: none; stroke-linecap: butt; stroke-dashoffset: 0; stroke-linejoin: miter; stroke-miterlimit: 4; fill: rgb(255,255,255); fill-rule: nonzero; opacity: 1; visibility: hidden;" vector-effect="non-scaling-stroke"  x="-540" y="-540" rx="0" ry="0" width="1080" height="1080" />
</g>
<g transform="matrix(1 0 0 1 540 540)" id="b63af0dc-459b-426e-b149-e4fe2bd3b352"  >
</g>
<g transform="matrix(1 0 0 1 478.15 536.2)"  >
<path style="stroke: none; stroke-width: 1; stroke-dasharray: none; stroke-linecap: butt; stroke-dashoffset: 0; stroke-linejoin: miter; stroke-miterlimit: 4; fill: rgb(145,169,255); fill-rule: nonzero; opacity: 1;" vector-effect="non-scaling-stroke"  transform=" translate(-7.25, -14.6)" d="M 0 10.3508 L 14.5 2 L 14.5 19.6126 L 0 27.2042 L 0 10.3508 Z" stroke-linecap="round" />
</g>
<g transform="matrix(1 0 0 1 492.57 536.2)"  >
<path style="stroke: none; stroke-width: 1; stroke-dasharray: none; stroke-linecap: butt; stroke-dashoffset: 0; stroke-linejoin: miter; stroke-miterlimit: 4; fill: rgb(94,129,255); fill-rule: nonzero; opacity: 1;" vector-effect="non-scaling-stroke"  transform=" translate(-21.67, -14.6)" d="M 28.9241 10.3508 L 14.4241 2 L 14.4241 19.6126 L 28.9241 27.2042 L 28.9241 10.3508 Z" stroke-linecap="round" />
</g>
<g transform="matrix(1 0 0 1 485.36 548.81)"  >
<path style="stroke: none; stroke-width: 1; stroke-dasharray: none; stroke-linecap: butt; stroke-dashoffset: 0; stroke-linejoin: miter; stroke-miterlimit: 4; fill: rgb(60,101,245); fill-rule: nonzero; opacity: 1;" vector-effect="non-scaling-stroke"  transform=" translate(-14.46, -27.2)" d="M 14.4241 19.6126 L 28.9241 27.2042 L 14.4241 34.7958 L -0.00000723942 27.2042 L 14.4241 19.6126 Z" stroke-linecap="round" />
</g>
<g transform="matrix(1 0 0 1 558.83 541)" style="" id="f698c383-0ab3-4b07-95a8-09250d783035"  >
		<text xml:space="preserve" font-family="Alegreya" font-size="22" font-style="normal" font-weight="800" style="stroke: none; stroke-width: 1; stroke-dasharray: none; stroke-linecap: butt; stroke-dashoffset: 0; stroke-linejoin: miter; stroke-miterlimit: 4; fill: rgb(5,38,78); fill-rule: nonzero; opacity: 1; white-space: pre;" ><tspan x="-51.99" y="6.91" >CareerHub</tspan></text>
</g>
</svg>